<svg width="105" height="30" viewBox="0 0 105 30" fill="none" xmlns="http://www.w3.org/2000/svg">
<path d="M51.5 26.944C50.5667 26.944 49.8573 26.636 49.372 26.02C48.8867 25.404 48.5507 24.4893 48.364 23.276C48.196 22.044 48.112 20.5227 48.112 18.712C48.112 18.0587 48.1213 17.4427 48.14 16.864C48.1587 16.2853 48.1773 15.744 48.196 15.24C45.956 15.128 44.3133 14.8107 43.268 14.288C42.2227 13.7653 41.7 12.86 41.7 11.572C41.7 9.96667 42.512 8.884 44.136 8.324C45.7787 7.764 48.2427 7.484 51.528 7.484C54.832 7.484 57.3147 7.764 58.976 8.324C60.656 8.884 61.496 9.96667 61.496 11.572C61.496 12.8413 60.964 13.7467 59.9 14.288C58.8547 14.8107 57.2213 15.128 55 15.24C55.0373 15.744 55.0653 16.2853 55.084 16.864C55.1027 17.4427 55.112 18.0587 55.112 18.712C55.112 21.568 54.86 23.6587 54.356 24.984C53.852 26.2907 52.9 26.944 51.5 26.944ZM72.1445 26.944C71.2112 26.944 70.5019 26.636 70.0165 26.02C69.5312 25.404 69.1952 24.4893 69.0085 23.276C68.8405 22.044 68.7565 20.5227 68.7565 18.712C68.7565 18.0587 68.7659 17.4427 68.7845 16.864C68.8032 16.2853 68.8219 15.744 68.8405 15.24C66.6005 15.128 64.9579 14.8107 63.9125 14.288C62.8672 13.7653 62.3445 12.86 62.3445 11.572C62.3445 9.96667 63.1565 8.884 64.7805 8.324C66.4232 7.764 68.8872 7.484 72.1725 7.484C75.4765 7.484 77.9592 7.764 79.6205 8.324C81.3005 8.884 82.1405 9.96667 82.1405 11.572C82.1405 12.8413 81.6085 13.7467 80.5445 14.288C79.4992 14.8107 77.8659 15.128 75.6445 15.24C75.6819 15.744 75.7099 16.2853 75.7285 16.864C75.7472 17.4427 75.7565 18.0587 75.7565 18.712C75.7565 21.568 75.5045 23.6587 75.0005 24.984C74.4965 26.2907 73.5445 26.944 72.1445 26.944ZM92.9774 27C92.3241 27 91.7827 26.832 91.3534 26.496C90.9427 26.1413 90.6627 25.7027 90.5134 25.18C90.3641 24.6573 90.2707 24.0787 90.2334 23.444C90.1961 22.7907 90.1774 22.1373 90.1774 21.484C90.1961 20.812 90.1961 20.196 90.1774 19.636C90.1587 19.076 90.1027 18.628 90.0094 18.292C89.9161 17.956 89.7387 17.788 89.4774 17.788C89.1041 17.788 88.8427 17.9467 88.6934 18.264C88.5441 18.5627 88.4694 18.9733 88.4694 19.496C88.4694 20 88.4974 20.5507 88.5534 21.148C88.6281 21.7453 88.7027 22.3427 88.7774 22.94C88.8521 23.5187 88.8894 24.032 88.8894 24.48C88.8894 25.4133 88.6747 26.0573 88.2454 26.412C87.8347 26.7667 87.2654 26.944 86.5374 26.944C85.8094 26.944 85.1654 26.6453 84.6054 26.048C84.0641 25.432 83.6067 24.648 83.2334 23.696C82.8787 22.7253 82.6081 21.68 82.4214 20.56C82.2347 19.44 82.1414 18.376 82.1414 17.368C82.1414 16.136 82.2721 14.9413 82.5334 13.784C82.8134 12.6267 83.2241 11.5907 83.7654 10.676C84.3254 9.76133 85.0161 9.03333 85.8374 8.492C86.6587 7.95067 87.6294 7.68 88.7494 7.68C89.6267 7.68 90.3547 7.876 90.9334 8.268C91.5121 8.64133 91.9694 9.11733 92.3054 9.696C92.6601 10.2747 92.9027 10.8627 93.0334 11.46C93.1641 10.8627 93.3974 10.2747 93.7334 9.696C94.0694 9.11733 94.5267 8.64133 95.1054 8.268C95.6841 7.876 96.4027 7.68 97.2614 7.68C98.6801 7.68 99.8841 8.11867 100.873 8.996C101.881 9.87333 102.647 11.0867 103.169 12.636C103.692 14.1667 103.953 15.9493 103.953 17.984C103.953 18.936 103.851 19.944 103.645 21.008C103.44 22.0533 103.141 23.0333 102.749 23.948C102.376 24.844 101.919 25.5813 101.377 26.16C100.836 26.72 100.22 27 99.5294 27C98.7827 27 98.1947 26.8133 97.7654 26.44C97.3361 26.0667 97.1214 25.4133 97.1214 24.48C97.1214 24.032 97.1587 23.5187 97.2334 22.94C97.3081 22.3427 97.3827 21.7453 97.4574 21.148C97.5321 20.5507 97.5694 20 97.5694 19.496C97.5694 18.9733 97.4947 18.5627 97.3454 18.264C97.2147 17.9467 96.9627 17.788 96.5894 17.788C96.3281 17.788 96.1414 17.956 96.0294 18.292C95.9361 18.628 95.8707 19.076 95.8334 19.636C95.8147 20.1773 95.8054 20.784 95.8054 21.456C95.8054 22.1093 95.7867 22.7627 95.7494 23.416C95.7307 24.0693 95.6467 24.6573 95.4974 25.18C95.3667 25.7027 95.0867 26.1413 94.6574 26.496C94.2281 26.832 93.6681 27 92.9774 27Z" fill="white"/>
<circle cx="15.9375" cy="9.375" r="9.375" fill="white"/>
<circle cx="22.5" cy="20.625" r="9.375" fill="white"/>
<circle cx="9.375" cy="20.625" r="9.375" fill="white"/>
<circle cx="9.375" cy="20.625" r="9.375" fill="#FFDC84" fill-opacity="0.7"/>
<circle cx="22.5" cy="20.625" r="9.375" fill="#8CD6FF" fill-opacity="0.7"/>
<circle cx="15.9375" cy="9.375" r="9.375" fill="#9CD243" fill-opacity="0.7"/>
</svg>
